<?xml version="1.0" encoding="UTF-8" ?>
 <svg viewBox="-66.65566106716922 -390.4614315730547  240.00000000000017 249.99999999992812" xmlns="http://www.w3.org/2000/svg" version="1.0" overflow="visible">
  <defs>
   <g id="ID__#42_MODEL_SPACE"/>
   <g id="ID__#42_PAPER_SPACE"/>
  </defs>
  <g id="draft" transform="matrix(1 0 0 -1 0 0)" stroke-width="0.061249999999991034">
   <g id="ID_0" color="rgb(0,0,0)" stroke="currentColor" fill="none" stroke-width="0.061249999999991034">
    <path d="M -46.65566106727033 140.4614315731266 L 153.34433893283096 140.46143157312736 A 19.999999999999986 19.999999999999986 0 0  1 173.34433893283094 160.46143157312736 L 173.34433893283096 175.46143157312736 A 20 20 0 0  1 153.34433893283096 195.46143157312736 L 8.34433893274451 195.46143157312738 A 19.99999999991352 19.99999999991352 0 0  0 -11.65566106716902 215.4614315730409 L -11.655661067169056 315.4614315731886 A 19.99999999985372 19.99999999985372 0 0  0 8.344338932684643 335.4614315730423 L 98.34433893283094 335.4614315730423 A 20 20 0 0  0 118.34433893283094 315.4614315730423 L 118.34433893283094 290.4614315730423 A 20.000000000000014 20.000000000000014 0 0  1 138.34433893283096 270.4614315730423 L 153.34433893283094 270.4614315730423 A 20 20 0 0  1 173.34433893283094 290.4614315730423 L 173.34433893283094 345.46143157305806 L 173.34433893283096 370.4614315730547 A 20.000000000000142 20.000000000000142 0 0  1 153.3443389328296 390.4614315730547 L -46.65566106721678 390.4614315730423 A 19.999999999952355 19.999999999952355 0 0  1 -66.65566106716922 370.46143157308927 L -66.65566106716906 160.46143157302436 A 19.999999999898797 19.999999999898797 0 0  1 -46.65566106727033 140.4614315731266  z" id="ID_100"/>
    <line x1="83.34433893283071" y1="383" x2="83.34433893283145" y2="382" id="ID_101"/>
    <line x1="160.5276051676292" y1="240.46143157312736" x2="161.52760516762913" y2="240.4614315731273" id="ID_102"/>
   </g>
  </g>
 </svg>